<?xml version="1.0" standalone="no"?><!DOCTYPE svg PUBLIC "-//W3C//DTD SVG 1.1//EN" "http://www.w3.org/Graphics/SVG/1.1/DTD/svg11.dtd"><svg t="1742107991103" class="icon" viewBox="0 0 1024 1024" version="1.1" xmlns="http://www.w3.org/2000/svg" p-id="7949" xmlns:xlink="http://www.w3.org/1999/xlink" width="200" height="200"><path d="M521.7 193.4m-68.5 0a68.5 68.5 0 1 0 137 0 68.5 68.5 0 1 0-137 0Z" fill="#C1272D" p-id="7950"></path><path d="M112.1 269.5c-2.6-1.7-0.7-5.6 2.2-4.7 48.4 16 199.3 59.7 406.4 60 200.5 0.3 348.7-40.3 403.4-57.9 3.3-1.1 5.4 3.5 2.4 5.3-54.5 33.4-212.1 117.9-405 117.7-199.8-0.3-361.7-89.4-409.4-120.4zM141.6 928.5c-1.9 3.3-6.9 1-5.6-2.6 35.3-96.5 191.1-488.8 385.6-470.1C638.8 467.1 735.3 622.8 718 645c-13.9 17.9-92.7-62.9-199.2-62.5-194.5 0.8-334.5 271.7-377.2 346z" fill="#C1272D" p-id="7951"></path></svg>